<?xml version="1.0" standalone="no"?>
<!DOCTYPE svg PUBLIC "-//W3C//DTD SVG 20010904//EN"
 "http://www.w3.org/TR/2001/REC-SVG-20010904/DTD/svg10.dtd">
<svg version="1.0" xmlns="http://www.w3.org/2000/svg"
 width="1024.000000pt" height="1024.000000pt" viewBox="0 0 1024.000000 1024.000000"
 preserveAspectRatio="xMidYMid meet">

<g transform="translate(0.000000,1024.000000) scale(0.100000,-0.100000)"
fill="#00a3e4" stroke="none">
<path d="M6665 8343 c-369 -48 -671 -160 -943 -350 -142 -99 -320 -265 -425
-396 -223 -279 -462 -713 -525 -953 -16 -64 -20 -70 -110 -153 -52 -47 -97
-87 -101 -89 -18 -6 21 200 65 339 45 147 175 408 260 523 36 48 64 89 62 91
-10 8 -250 88 -316 104 -308 76 -647 61 -967 -43 -755 -247 -1413 -1069 -1590
-1986 -47 -245 -58 -379 -52 -655 6 -273 21 -404 69 -615 131 -578 381 -1038
804 -1479 296 -309 719 -580 1173 -752 324 -122 712 -190 1086 -191 211 0 333
10 530 43 802 137 1511 571 2022 1239 293 382 499 902 570 1436 21 164 24 581
5 734 -65 507 -263 997 -569 1407 -208 279 -466 516 -761 700 -202 126 -622
320 -665 308 -37 -11 -167 -85 -257 -145 -90 -61 -221 -168 -227 -185 -2 -6
28 -16 68 -23 240 -41 546 -171 807 -342 513 -335 872 -807 1037 -1360 212
-711 86 -1541 -327 -2158 -150 -224 -382 -467 -606 -635 -853 -641 -1970 -728
-2897 -226 -388 211 -640 426 -899 770 -271 358 -403 718 -375 1023 35 381
321 782 773 1086 162 108 279 172 661 361 494 244 651 341 865 538 167 153
280 306 465 629 204 358 409 584 669 741 233 141 504 227 746 237 l105 4 3
215 2 215 -102 -1 c-57 -1 -116 -4 -133 -6z m-2485 -1724 c-8 -5 -77 -47 -154
-94 -403 -246 -821 -598 -1069 -900 -119 -145 -274 -381 -348 -530 -66 -132
-67 -122 -4 71 76 232 177 425 324 619 275 362 664 644 1096 795 136 48 189
61 155 39z"/>
<path d="M5655 6532 c-126 -193 -263 -367 -392 -498 -236 -239 -459 -402 -755
-550 -89 -45 -533 -244 -543 -244 -31 0 -512 -266 -575 -317 -12 -11 80 -163
133 -220 120 -128 316 -183 492 -138 240 61 405 267 405 506 l0 67 90 -41 89
-42 -6 -85 c-12 -179 38 -322 156 -441 212 -213 550 -215 765 -5 141 139 195
333 149 541 -15 69 -15 76 0 88 9 6 29 28 45 49 l28 36 50 -39 c27 -21 55 -39
62 -39 9 0 12 -26 12 -95 0 -156 45 -259 160 -369 221 -211 609 -188 785 47
56 74 78 114 99 186 20 69 21 199 1 276 -15 57 -73 195 -82 195 -2 0 -30 -21
-61 -46 -119 -97 -261 -146 -427 -145 -232 0 -423 98 -561 286 -26 36 -50 65
-53 64 -3 0 -23 -35 -44 -78 -127 -254 -361 -401 -638 -401 -112 0 -208 18
-305 56 -68 28 -214 118 -214 134 0 4 32 28 72 53 l72 45 41 -28 c101 -69 200
-100 321 -100 280 1 491 170 566 455 10 41 22 139 28 238 8 135 20 219 60 420
28 138 50 259 48 268 -2 12 -29 -22 -73 -89z"/>
<path d="M6249 6460 c-136 -16 -278 -99 -360 -208 -109 -144 -135 -347 -69
-524 46 -124 163 -252 277 -305 62 -29 170 -53 239 -53 70 0 193 33 266 72
205 109 319 370 263 606 -65 275 -322 448 -616 412z m26 -138 c-181 -76 -287
-191 -341 -372 l-23 -75 0 76 c-1 92 16 154 63 225 39 59 122 126 182 148 21
8 66 15 99 15 l60 0 -40 -17z"/>
<path d="M4284 4545 c-40 -7 -101 -27 -135 -44 -178 -87 -269 -237 -269 -441
0 -145 41 -248 141 -354 231 -248 656 -183 808 123 72 145 70 323 -7 465 -66
123 -225 232 -372 255 -77 13 -75 13 -166 -4z m95 -115 c9 -1 -8 -9 -38 -20
-157 -57 -279 -193 -312 -348 -6 -30 -13 -52 -15 -49 -3 2 -5 38 -5 78 -1 129
57 236 159 296 57 33 128 54 166 48 16 -3 36 -5 45 -5z"/>
<path d="M5800 4545 c-193 -43 -343 -190 -381 -373 -6 -33 -9 -96 -7 -150 5
-81 10 -102 43 -168 109 -222 327 -336 556 -290 163 34 276 120 348 268 77
156 78 296 6 444 -98 200 -346 318 -565 269z m89 -114 c10 -7 6 -11 -17 -16
-47 -10 -140 -75 -200 -138 -59 -63 -102 -147 -110 -214 -7 -68 -25 -36 -25
45 0 172 144 322 318 331 11 0 26 -3 34 -8z"/>
<path d="M5255 4214 c-49 -15 -178 -18 -224 -4 -19 5 -36 8 -38 7 -1 -2 6 -27
17 -56 31 -80 35 -154 12 -239 l-19 -73 41 8 c68 13 211 10 229 -6 22 -18 22
-4 2 63 -21 68 -19 172 5 247 10 35 18 64 17 64 -1 1 -20 -4 -42 -11z"/>
<path d="M5005 3705 c-164 -46 -335 -186 -392 -325 -143 -343 40 -723 392
-815 76 -19 214 -19 289 0 197 52 369 224 421 421 17 67 20 227 4 294 -44 194
-222 372 -424 425 -72 18 -221 18 -290 0z m52 -140 c-38 -18 -93 -52 -122 -75
-94 -73 -195 -247 -211 -365 -4 -25 -10 -45 -14 -45 -14 0 -20 108 -9 166 17
92 60 173 128 238 79 75 163 111 266 115 25 1 19 -5 -38 -34z"/>
</g>
</svg>
